<?xml version="1.0" encoding="iso-8859-1"?>
<!-- Generator: Adobe Illustrator 19.0.0, SVG Export Plug-In . SVG Version: 6.00 Build 0)  -->
<svg version="1.1" id="Capa_1" xmlns="http://www.w3.org/2000/svg" xmlns:xlink="http://www.w3.org/1999/xlink" x="0px" y="0px"
	 viewBox="0 0 512 512" style="enable-background:new 0 0 512 512;" xml:space="preserve">
<g>
	<g>
		<path d="M509.971,430.496c-14.335-24.81,33.869,58.6-210.366-364.001C296.924,61.856,291.974,59,286.618,59h-61.236
			c-5.356,0-10.307,2.856-12.987,7.494c-90.253,156.154-43.839,75.845-210.365,364C-3.738,440.472,3.474,453,15.015,453h481.969
			C508.507,453,515.744,440.491,509.971,430.496z M285.795,195.406c-5.258-5.114-13.363-5.638-19.228-1.395
			c-1.409,1.019,2.803-2.971-54.405,52.655l-44.333-43.115L234.037,89h43.924l130.352,225.546L285.795,195.406z"/>
	</g>
</g>
<g>
</g>
<g>
</g>
<g>
</g>
<g>
</g>
<g>
</g>
<g>
</g>
<g>
</g>
<g>
</g>
<g>
</g>
<g>
</g>
<g>
</g>
<g>
</g>
<g>
</g>
<g>
</g>
<g>
</g>
</svg>
